<mxfile host="app.diagrams.net" modified="2024-04-19T06:28:10.013Z" agent="Mozilla/5.0 (Windows NT 10.0; Win64; x64) AppleWebKit/537.36 (KHTML, like Gecko) Chrome/120.0.0.0 YaBrowser/24.1.0.0 Safari/537.36" version="24.2.5" etag="dam4nmgeDc9XZWD_wQBH" type="github">
  <diagram name="Страница — 1" id="kppuv_cNYnVX8NwHo6bD">
    <mxGraphModel>
      <root>
        <mxCell id="0" />
        <mxCell id="1" parent="0" />
      </root>
    </mxGraphModel>
  </diagram>
</mxfile>
